<svg xmlns="http://www.w3.org/2000/svg" viewBox="0 0 50 100"><defs><style>.cls-1{isolation:isolate;}.cls-2{mix-blend-mode:multiply;opacity:0.5;}.cls-3,.cls-4{opacity:0;}.cls-4{fill:#fff;}.cls-5{opacity:0.03;}.cls-6{fill:#fafafa;opacity:0.03;}.cls-7{opacity:0.06;}.cls-8{fill:#f5f5f5;opacity:0.06;}.cls-9{opacity:0.1;}.cls-10{fill:#efefef;opacity:0.1;}.cls-11{opacity:0.13;}.cls-12{fill:#eaeaea;opacity:0.13;}.cls-13{opacity:0.16;}.cls-14{fill:#e5e5e5;opacity:0.16;}.cls-15{opacity:0.19;}.cls-16{fill:#e0e0e0;opacity:0.19;}.cls-17{opacity:0.23;}.cls-18{fill:#dadada;opacity:0.23;}.cls-19{opacity:0.26;}.cls-20{fill:#d5d5d5;opacity:0.26;}.cls-21{opacity:0.29;}.cls-22{fill:#d0d0d0;opacity:0.29;}.cls-23{opacity:0.32;}.cls-24{fill:#cbcbcb;opacity:0.32;}.cls-25{opacity:0.35;}.cls-26{fill:#c6c6c6;opacity:0.35;}.cls-27{opacity:0.39;}.cls-28{fill:silver;opacity:0.39;}.cls-29{opacity:0.42;}.cls-30{fill:#bbb;opacity:0.42;}.cls-31{opacity:0.45;}.cls-32{fill:#b6b6b6;opacity:0.45;}.cls-33{opacity:0.48;}.cls-34{fill:#b1b1b1;opacity:0.48;}.cls-35{opacity:0.52;}.cls-36{fill:#ababab;opacity:0.52;}.cls-37{opacity:0.55;}.cls-38{fill:#a6a6a6;opacity:0.55;}.cls-39{opacity:0.58;}.cls-40{fill:#a1a1a1;opacity:0.58;}.cls-41{opacity:0.61;}.cls-42{fill:#9c9c9c;opacity:0.61;}.cls-43{opacity:0.65;}.cls-44{fill:#969696;opacity:0.65;}.cls-45{opacity:0.68;}.cls-46{fill:#919191;opacity:0.68;}.cls-47{opacity:0.71;}.cls-48{fill:#8c8c8c;opacity:0.71;}.cls-49{opacity:0.74;}.cls-50{fill:#878787;opacity:0.74;}.cls-51{opacity:0.77;}.cls-52{fill:#828282;opacity:0.77;}.cls-53{opacity:0.81;}.cls-54{fill:#7c7c7c;opacity:0.81;}.cls-55{opacity:0.84;}.cls-56{fill:#777;opacity:0.84;}.cls-57{opacity:0.87;}.cls-58{fill:#727272;opacity:0.87;}.cls-59{opacity:0.9;}.cls-60{fill:#6d6d6d;opacity:0.9;}.cls-61{opacity:0.94;}.cls-62{fill:#676767;opacity:0.94;}.cls-63{opacity:0.97;}.cls-64{fill:#626262;opacity:0.97;}.cls-65{fill:#5d5d5d;}.cls-66{fill:none;stroke:#66ff70;stroke-miterlimit:10;stroke-width:0.25px;}</style></defs><g class="cls-1"><g id="Layer_1" data-name="Layer 1"><g class="cls-2"><g class="cls-3"><path class="cls-4" d="M1.56,8A.83.83,0,0,0,.38,8l-2.75,2.92a.82.82,0,0,0,0,1.17.82.82,0,0,0,1.17,0L1.59,9.12A.82.82,0,0,0,1.56,8Z"/><path class="cls-4" d="M11.05,16.88a.83.83,0,0,0-1.18,0L7.12,19.84A.83.83,0,0,0,8.33,21l2.76-2.92A.85.85,0,0,0,11.05,16.88Z"/><path class="cls-4" d="M2.71,9l0,0-5.07,5.39a1.23,1.23,0,0,0,.05,1.76l1,.92-1.45,1.53a.85.85,0,0,0,0,1.18.82.82,0,0,0,1.17,0l1.45-1.53,1,1L-.58,20.77A.84.84,0,0,0-.53,22a.81.81,0,0,0,1.16,0l1.45-1.53,1,.91a1.26,1.26,0,0,0,1.77-.05l5.07-5.4,0,0Z"/><path class="cls-4" d="M9.94,12.14a.47.47,0,0,1,.64-.68.45.45,0,0,1,0,.65A.44.44,0,0,1,9.94,12.14Zm1.59-1.74,1.78-.6-.07-.2-1.78.61A4.94,4.94,0,0,0,10.2,8.29,5,5,0,0,0,8.31,7.17l.48-1.75-.2,0L8.12,7.12A4.93,4.93,0,0,0,3.28,8.47l7.15,6.74A4.94,4.94,0,0,0,11.53,10.4ZM6.31,8.73a.47.47,0,1,1,.66,0A.46.46,0,0,1,6.31,8.73Z"/></g><g class="cls-5"><path class="cls-6" d="M1.56,7.84a.82.82,0,0,0-1.17,0L-2.36,10.8a.83.83,0,0,0,0,1.17.82.82,0,0,0,1.17,0L1.59,9A.82.82,0,0,0,1.56,7.84Z"/><path class="cls-6" d="M11.05,16.77a.82.82,0,0,0-1.17,0L7.13,19.73a.82.82,0,0,0,0,1.17.83.83,0,0,0,1.17,0L11.09,18A.84.84,0,0,0,11.05,16.77Z"/><path class="cls-6" d="M2.71,8.92l0,0-5.08,5.39a1.25,1.25,0,0,0,.05,1.76l1,.92-1.45,1.53a.84.84,0,0,0,0,1.18.82.82,0,0,0,1.17,0l1.44-1.53,1,1L-.58,20.66a.85.85,0,0,0,0,1.18.82.82,0,0,0,1.17,0l1.44-1.53,1,.91a1.25,1.25,0,0,0,1.76-.05l5.08-5.4s0,0,0,0Z"/><path class="cls-6" d="M9.94,12a.48.48,0,0,1,0-.67.47.47,0,1,1,0,.67Zm1.59-1.75,1.78-.6-.06-.19-1.79.6A4.73,4.73,0,0,0,10.2,8.18,4.91,4.91,0,0,0,8.32,7.06L8.8,5.31l-.21,0L8.12,7A4.94,4.94,0,0,0,3.28,8.36l7.16,6.74A4.93,4.93,0,0,0,11.53,10.29ZM6.31,8.62A.47.47,0,0,1,7,7.93.48.48,0,0,1,7,8.6.47.47,0,0,1,6.31,8.62Z"/></g><g class="cls-7"><path class="cls-8" d="M1.57,7.73a.83.83,0,0,0-1.18,0l-2.75,2.92a.82.82,0,0,0,0,1.17.82.82,0,0,0,1.17,0L1.6,8.9A.83.83,0,0,0,1.57,7.73Z"/><path class="cls-8" d="M11.06,16.66a.84.84,0,0,0-1.18,0L7.13,19.62a.83.83,0,0,0,1.21,1.14l2.75-2.92A.84.84,0,0,0,11.06,16.66Z"/><path class="cls-8" d="M2.72,8.81l0,0-5.08,5.39A1.25,1.25,0,0,0-2.34,16l1,.92-1.45,1.54a.83.83,0,0,0,0,1.17.83.83,0,0,0,1.17,0l1.45-1.54,1,1L-.57,20.55a.85.85,0,0,0,0,1.18.82.82,0,0,0,1.17,0l1.45-1.53,1,.91A1.25,1.25,0,0,0,4.82,21l5.08-5.4,0,0Z"/><path class="cls-8" d="M10,11.93a.47.47,0,0,1,0-.67.46.46,0,1,1,0,.67Zm1.59-1.75,1.77-.6-.06-.19-1.79.6a4.81,4.81,0,0,0-1.25-1.92A5,5,0,0,0,8.32,7L8.8,5.2l-.2,0L8.13,6.9A5,5,0,0,0,3.28,8.25L10.44,15A4.94,4.94,0,0,0,11.54,10.18ZM6.31,8.51a.48.48,0,0,1,0-.67.47.47,0,1,1,0,.67Z"/></g><g class="cls-9"><path class="cls-10" d="M1.57,7.62a.82.82,0,0,0-1.17,0l-2.76,2.92a.82.82,0,0,0,0,1.17.82.82,0,0,0,1.17,0L1.6,8.79A.82.82,0,0,0,1.57,7.62Z"/><path class="cls-10" d="M11.06,16.55a.82.82,0,0,0-1.17,0L7.13,19.51a.83.83,0,0,0,1.22,1.14l2.75-2.92A.85.85,0,0,0,11.06,16.55Z"/><path class="cls-10" d="M2.72,8.7l0,0-5.07,5.39a1.25,1.25,0,0,0,0,1.76l1,.92-1.45,1.54a.83.83,0,0,0,0,1.17.83.83,0,0,0,1.17,0l1.45-1.54,1,1L-.57,20.44a.84.84,0,0,0,0,1.18.82.82,0,0,0,1.17,0l1.44-1.53,1,.91a1.25,1.25,0,0,0,1.76-.05l5.07-5.4,0,0Z"/><path class="cls-10" d="M10,11.82a.47.47,0,1,1,.66,0A.47.47,0,0,1,10,11.82Zm1.59-1.75,1.78-.59-.06-.2-1.79.6A4.73,4.73,0,0,0,10.21,8,4.94,4.94,0,0,0,8.32,6.84L8.8,5.09,8.6,5,8.13,6.79A4.92,4.92,0,0,0,3.29,8.15l7.16,6.73A4.93,4.93,0,0,0,11.54,10.07ZM6.32,8.4a.47.47,0,1,1,.66,0A.46.46,0,0,1,6.32,8.4Z"/></g><g class="cls-11"><path class="cls-12" d="M1.57,7.51a.82.82,0,0,0-1.17,0l-2.75,2.92a.82.82,0,0,0,0,1.17.81.81,0,0,0,1.16,0L1.61,8.68A.82.82,0,0,0,1.57,7.51Z"/><path class="cls-12" d="M11.07,16.44a.84.84,0,0,0-1.18,0L7.14,19.4a.83.83,0,0,0,1.21,1.14l2.75-2.92A.84.84,0,0,0,11.07,16.44Z"/><path class="cls-12" d="M2.72,8.59l0,0L-2.38,14a1.26,1.26,0,0,0,0,1.77l1,.91L-2.8,18.23a.82.82,0,0,0,0,1.17.83.83,0,0,0,1.17,0l1.45-1.54,1,1L-.56,20.33a.84.84,0,0,0,0,1.18.82.82,0,0,0,1.17,0L2.1,19.94l1,.91a1.25,1.25,0,0,0,1.76-.05l5.08-5.4s0,0,0,0Z"/><path class="cls-12" d="M10,11.71a.47.47,0,0,1,0-.67.46.46,0,1,1,0,.67ZM11.55,10l1.77-.59-.06-.2-1.79.6a4.81,4.81,0,0,0-1.25-1.92A5,5,0,0,0,8.33,6.73L8.81,5l-.2-.05L8.14,6.68A4.94,4.94,0,0,0,3.29,8l7.16,6.73A5,5,0,0,0,11.55,10ZM6.32,8.29a.49.49,0,0,1,0-.67A.48.48,0,0,1,7,7.6a.47.47,0,1,1-.65.69Z"/></g><g class="cls-13"><path class="cls-14" d="M1.58,7.4a.83.83,0,0,0-1.18,0l-2.75,2.92a.82.82,0,0,0,0,1.17.82.82,0,0,0,1.17,0L1.61,8.57A.82.82,0,0,0,1.58,7.4Z"/><path class="cls-14" d="M11.07,16.33a.84.84,0,0,0-1.18,0L7.14,19.29a.83.83,0,0,0,0,1.17.85.85,0,0,0,1.18,0l2.75-2.92A.85.85,0,0,0,11.07,16.33Z"/><path class="cls-14" d="M2.73,8.48l0,0L-2.37,13.9a1.24,1.24,0,0,0,.05,1.77l1,.91L-2.8,18.12a.83.83,0,0,0,0,1.17.83.83,0,0,0,1.17,0l1.45-1.54,1,1L-.56,20.22A.84.84,0,0,0-.51,21.4a.82.82,0,0,0,1.17,0L2.1,19.83l1,.91a1.25,1.25,0,0,0,1.76,0l5.07-5.4s0,0,0,0Z"/><path class="cls-14" d="M10,11.6a.47.47,0,0,1,0-.67.46.46,0,0,1,.66,0,.47.47,0,0,1-.64.69Zm1.59-1.75,1.78-.59-.07-.2-1.78.6a4.94,4.94,0,0,0-1.26-1.92A5,5,0,0,0,8.33,6.62l.48-1.75-.2,0L8.14,6.57A4.91,4.91,0,0,0,3.3,7.93l7.16,6.73A5,5,0,0,0,11.55,9.85ZM6.33,8.18a.47.47,0,0,1,0-.67.48.48,0,0,1,.66,0,.47.47,0,0,1,0,.67A.46.46,0,0,1,6.33,8.18Z"/></g><g class="cls-15"><path class="cls-16" d="M1.58,7.29a.82.82,0,0,0-1.17,0l-2.75,2.92a.83.83,0,0,0,0,1.17.82.82,0,0,0,1.17,0L1.61,8.47A.83.83,0,0,0,1.58,7.29Z"/><path class="cls-16" d="M11.07,16.22a.82.82,0,0,0-1.17,0L7.15,19.18a.82.82,0,0,0,0,1.17.83.83,0,0,0,1.17,0l2.75-2.92A.83.83,0,0,0,11.07,16.22Z"/><path class="cls-16" d="M2.73,8.37l0,0-5.08,5.39a1.26,1.26,0,0,0,.05,1.77l1,.91L-2.79,18a.82.82,0,0,0,0,1.17.83.83,0,0,0,1.17,0l1.44-1.54,1,1L-.55,20.11a.84.84,0,0,0,0,1.18.82.82,0,0,0,1.17,0l1.45-1.53,1,.91a1.25,1.25,0,0,0,1.76-.05l5.08-5.4,0,0Z"/><path class="cls-16" d="M10,11.49a.48.48,0,0,1,0-.67.46.46,0,1,1,.67.64A.47.47,0,0,1,10,11.49Zm1.59-1.75,1.78-.59L13.27,9l-1.79.6a4.81,4.81,0,0,0-1.25-1.92A5.15,5.15,0,0,0,8.34,6.51l.48-1.75-.21,0L8.14,6.46A4.93,4.93,0,0,0,3.3,7.82l7.16,6.73A4.93,4.93,0,0,0,11.55,9.74ZM6.33,8.07a.46.46,0,0,1,0-.66A.47.47,0,1,1,7,8.05.47.47,0,0,1,6.33,8.07Z"/></g><g class="cls-17"><path class="cls-18" d="M1.59,7.18a.83.83,0,0,0-1.18,0l-2.75,2.92a.82.82,0,0,0,0,1.17.82.82,0,0,0,1.17,0L1.62,8.36A.85.85,0,0,0,1.59,7.18Z"/><path class="cls-18" d="M11.08,16.11a.84.84,0,0,0-1.18,0L7.15,19.07a.83.83,0,0,0,1.21,1.14l2.75-2.92A.84.84,0,0,0,11.08,16.11Z"/><path class="cls-18" d="M2.74,8.26l0,0-5.07,5.39a1.24,1.24,0,0,0,0,1.77l1,.91L-2.79,17.9a.83.83,0,0,0,0,1.17.83.83,0,0,0,1.17,0L-.13,17.5l1,1L-.55,20A.84.84,0,0,0-.5,21.18a.82.82,0,0,0,1.16,0l1.45-1.54,1,.91a1.26,1.26,0,0,0,1.77-.05l5.07-5.4s0,0,0,0Z"/><path class="cls-18" d="M10,11.38a.47.47,0,0,1,0-.67.46.46,0,1,1,0,.67Zm1.59-1.75L13.33,9l-.06-.2-1.78.6a4.94,4.94,0,0,0-1.26-1.92A5.15,5.15,0,0,0,8.34,6.4l.48-1.75-.2-.05L8.15,6.35A4.91,4.91,0,0,0,3.31,7.71l7.15,6.73A4.94,4.94,0,0,0,11.56,9.63ZM6.34,8a.46.46,0,0,1,0-.66A.47.47,0,1,1,7,7.94.46.46,0,0,1,6.34,8Z"/></g><g class="cls-19"><path class="cls-20" d="M1.59,7.07a.82.82,0,0,0-1.17,0L-2.33,10a.83.83,0,0,0,0,1.17.82.82,0,0,0,1.17,0L1.62,8.25A.83.83,0,0,0,1.59,7.07Z"/><path class="cls-20" d="M11.08,16a.82.82,0,0,0-1.17,0L7.16,19a.83.83,0,0,0,0,1.17.85.85,0,0,0,1.18,0l2.75-2.92A.85.85,0,0,0,11.08,16Z"/><path class="cls-20" d="M2.74,8.15l0,0-5.07,5.39a1.26,1.26,0,0,0,0,1.77l1,.91-1.45,1.54a.82.82,0,0,0,0,1.17.83.83,0,0,0,1.17,0l1.44-1.54,1,1L-.54,19.89a.84.84,0,0,0,0,1.18A.83.83,0,0,0,.67,21L2.11,19.5l1,.91a1.25,1.25,0,0,0,1.76-.05L9.93,15l0,0Z"/><path class="cls-20" d="M10,11.27a.47.47,0,1,1,.66,0A.47.47,0,0,1,10,11.27Zm1.59-1.75,1.78-.59-.06-.2-1.79.6a4.73,4.73,0,0,0-1.26-1.92A5,5,0,0,0,8.34,6.29l.49-1.75-.21,0L8.15,6.24A4.93,4.93,0,0,0,3.31,7.6l7.16,6.73A4.93,4.93,0,0,0,11.56,9.52ZM6.34,7.85a.46.46,0,0,1,0-.66A.47.47,0,1,1,7,7.83.46.46,0,0,1,6.34,7.85Z"/></g><g class="cls-21"><path class="cls-22" d="M1.59,7A.82.82,0,0,0,.42,7L-2.33,9.93a.81.81,0,0,0,0,1.16.82.82,0,0,0,1.17,0L1.63,8.14A.84.84,0,0,0,1.59,7Z"/><path class="cls-22" d="M11.09,15.89a.84.84,0,0,0-1.18,0L7.16,18.85A.83.83,0,0,0,8.37,20l2.75-2.92A.84.84,0,0,0,11.09,15.89Z"/><path class="cls-22" d="M2.74,8l0,0-5.08,5.39a1.26,1.26,0,0,0,0,1.77l1,.91-1.44,1.54a.82.82,0,0,0,0,1.17.83.83,0,0,0,1.17,0l1.45-1.54,1,1L-.54,19.79A.83.83,0,0,0-.5,21a.83.83,0,0,0,1.17,0l1.45-1.54,1,.91a1.25,1.25,0,0,0,1.76-.05l5.08-5.4,0,0Z"/><path class="cls-22" d="M10,11.16a.47.47,0,0,1,.64-.69.47.47,0,0,1-.64.69Zm1.59-1.75,1.77-.59-.06-.2-1.79.6A4.81,4.81,0,0,0,10.24,7.3,5.15,5.15,0,0,0,8.35,6.18l.48-1.75-.2,0L8.16,6.13A4.94,4.94,0,0,0,3.31,7.49l7.16,6.73A4.93,4.93,0,0,0,11.57,9.41ZM6.34,7.74a.47.47,0,1,1,.67,0A.47.47,0,0,1,6.34,7.74Z"/></g><g class="cls-23"><path class="cls-24" d="M1.6,6.85a.84.84,0,0,0-1.18,0L-2.33,9.82a.81.81,0,0,0,0,1.16.82.82,0,0,0,1.17,0L1.63,8A.83.83,0,0,0,1.6,6.85Z"/><path class="cls-24" d="M11.09,15.78a.82.82,0,0,0-1.17,0L7.16,18.74a.83.83,0,0,0,0,1.17.85.85,0,0,0,1.18,0L11.13,17A.85.85,0,0,0,11.09,15.78Z"/><path class="cls-24" d="M2.75,7.93l0,0-5.07,5.39a1.26,1.26,0,0,0,.05,1.77l1,.91-1.45,1.54a.83.83,0,0,0,0,1.17.83.83,0,0,0,1.17,0l1.45-1.54,1,1L-.54,19.68a.82.82,0,0,0,.05,1.17.83.83,0,0,0,1.17,0l1.44-1.54,1,.92a1.26,1.26,0,0,0,1.76-.06l5.07-5.4,0,0Z"/><path class="cls-24" d="M10,11.05a.47.47,0,0,1,0-.67.47.47,0,1,1,.68.64A.47.47,0,0,1,10,11.05ZM11.57,9.3l1.78-.59-.06-.2-1.79.6a4.73,4.73,0,0,0-1.26-1.92A5,5,0,0,0,8.35,6.08l.48-1.76-.2-.05L8.16,6A4.91,4.91,0,0,0,3.32,7.38l7.16,6.73A5,5,0,0,0,11.57,9.3ZM6.35,7.63a.46.46,0,0,1,0-.66A.47.47,0,1,1,7,7.61.46.46,0,0,1,6.35,7.63Z"/></g><g class="cls-25"><path class="cls-26" d="M1.6,6.74a.82.82,0,0,0-1.17,0L-2.32,9.71a.81.81,0,0,0,0,1.16.81.81,0,0,0,1.16,0L1.64,7.92A.84.84,0,0,0,1.6,6.74Z"/><path class="cls-26" d="M11.09,15.67a.82.82,0,0,0-1.17,0L7.17,18.63a.83.83,0,0,0,1.21,1.14l2.75-2.92A.83.83,0,0,0,11.09,15.67Z"/><path class="cls-26" d="M2.75,7.82l0,0-5.08,5.4A1.25,1.25,0,0,0-2.3,15l1,.91-1.44,1.54a.82.82,0,0,0,0,1.17.83.83,0,0,0,1.17,0l1.45-1.54,1,1L-.53,19.57a.82.82,0,0,0,0,1.17.83.83,0,0,0,1.17,0l1.45-1.54,1,.92A1.26,1.26,0,0,0,4.86,20l5.08-5.4,0,0Z"/><path class="cls-26" d="M10,10.94a.47.47,0,0,1,.65-.69.46.46,0,0,1,0,.66A.47.47,0,0,1,10,10.94Zm1.59-1.75,1.78-.59-.06-.2L11.5,9a4.81,4.81,0,0,0-1.25-1.92A5,5,0,0,0,8.36,6l.48-1.76-.21,0L8.17,5.91A4.94,4.94,0,0,0,3.32,7.27L10.48,14A4.93,4.93,0,0,0,11.57,9.19ZM6.35,7.52A.47.47,0,1,1,7,6.84.46.46,0,0,1,7,7.5.47.47,0,0,1,6.35,7.52Z"/></g><g class="cls-27"><path class="cls-28" d="M1.61,6.63a.84.84,0,0,0-1.18,0L-2.32,9.6a.81.81,0,0,0,0,1.16.82.82,0,0,0,1.17,0L1.64,7.81A.83.83,0,0,0,1.61,6.63Z"/><path class="cls-28" d="M11.1,15.56a.84.84,0,0,0-1.18,0L7.17,18.52a.83.83,0,0,0,1.22,1.14l2.75-2.92A.85.85,0,0,0,11.1,15.56Z"/><path class="cls-28" d="M2.76,7.71l0,0-5.07,5.4a1.23,1.23,0,0,0,0,1.76l1,.91-1.45,1.54a.83.83,0,0,0,0,1.17.83.83,0,0,0,1.17,0L-.11,17l1,1L-.53,19.46a.82.82,0,0,0,.05,1.17.82.82,0,0,0,1.16,0l1.45-1.54,1,.92a1.25,1.25,0,0,0,1.76-.06l5.07-5.4s0,0,0,0Z"/><path class="cls-28" d="M10,10.83a.47.47,0,0,1,0-.67.48.48,0,0,1,.66,0,.47.47,0,0,1-.64.69Zm1.59-1.75,1.78-.59-.07-.2-1.78.6A4.94,4.94,0,0,0,10.25,7,5,5,0,0,0,8.36,5.86L8.84,4.1l-.2,0L8.17,5.8A4.91,4.91,0,0,0,3.33,7.16l7.15,6.73A4.93,4.93,0,0,0,11.58,9.08ZM6.36,7.41a.47.47,0,1,1,.66,0A.46.46,0,0,1,6.36,7.41Z"/></g><g class="cls-29"><path class="cls-30" d="M1.61,6.52a.83.83,0,0,0-1.17,0L-2.31,9.49a.82.82,0,0,0,0,1.16.82.82,0,0,0,1.17,0L1.64,7.7A.83.83,0,0,0,1.61,6.52Z"/><path class="cls-30" d="M11.1,15.45a.83.83,0,0,0-1.17,0L7.18,18.41a.83.83,0,0,0,1.21,1.14l2.75-2.92A.84.84,0,0,0,11.1,15.45Z"/><path class="cls-30" d="M2.76,7.6l0,0L-2.34,13a1.25,1.25,0,0,0,0,1.76l1,.91-1.44,1.54a.82.82,0,0,0,0,1.17.83.83,0,0,0,1.17,0l1.44-1.54,1,1L-.52,19.35a.82.82,0,0,0,0,1.17.83.83,0,0,0,1.17,0L2.14,19l1,.92a1.25,1.25,0,0,0,1.76-.06L10,14.41l0,0Z"/><path class="cls-30" d="M10,10.72a.47.47,0,1,1,.66,0A.47.47,0,0,1,10,10.72ZM11.58,9l1.78-.59-.06-.2-1.79.6a4.81,4.81,0,0,0-1.25-1.92A5,5,0,0,0,8.37,5.75L8.85,4l-.21-.05L8.17,5.69A4.93,4.93,0,0,0,3.33,7.05l7.16,6.73A4.93,4.93,0,0,0,11.58,9ZM6.36,7.3A.47.47,0,1,1,7,6.62a.47.47,0,1,1-.64.68Z"/></g><g class="cls-31"><path class="cls-32" d="M1.62,6.41a.85.85,0,0,0-1.18,0L-2.31,9.38a.81.81,0,0,0,0,1.16.82.82,0,0,0,1.17,0L1.65,7.59A.85.85,0,0,0,1.62,6.41Z"/><path class="cls-32" d="M11.11,15.34a.85.85,0,0,0-1.18,0L7.18,18.31a.83.83,0,0,0,1.21,1.13l2.75-2.92A.84.84,0,0,0,11.11,15.34Z"/><path class="cls-32" d="M2.77,7.49l0,0-5.07,5.4a1.23,1.23,0,0,0,.05,1.76l1,.91-1.45,1.54a.83.83,0,0,0,0,1.17.83.83,0,0,0,1.17,0L-.1,16.73l1,1L-.52,19.24a.82.82,0,0,0,.05,1.17.82.82,0,0,0,1.16,0l1.45-1.54,1,.92a1.26,1.26,0,0,0,1.77-.06L10,14.3s0,0,0,0Z"/><path class="cls-32" d="M10,10.61A.46.46,0,0,1,10,10a.47.47,0,0,1,.66,0,.47.47,0,0,1-.64.69Zm1.59-1.74,1.77-.6-.06-.2-1.78.6a4.94,4.94,0,0,0-1.26-1.92A5,5,0,0,0,8.37,5.64l.48-1.76-.2,0L8.18,5.58A4.94,4.94,0,0,0,3.33,6.94l7.16,6.73A4.92,4.92,0,0,0,11.59,8.87ZM6.36,7.19a.47.47,0,0,1,0-.66A.47.47,0,0,1,7,7.17.47.47,0,0,1,6.36,7.19Z"/></g><g class="cls-33"><path class="cls-34" d="M1.62,6.3a.83.83,0,0,0-1.17,0L-2.3,9.27a.82.82,0,0,0,0,1.16.82.82,0,0,0,1.17,0L1.65,7.48A.83.83,0,0,0,1.62,6.3Z"/><path class="cls-34" d="M11.11,15.23a.83.83,0,0,0-1.17,0L7.19,18.2a.82.82,0,0,0,0,1.16.84.84,0,0,0,1.18,0l2.75-2.93A.85.85,0,0,0,11.11,15.23Z"/><path class="cls-34" d="M2.77,7.38l0,0-5.07,5.4a1.25,1.25,0,0,0,.05,1.76l1,.91L-2.76,17a.82.82,0,0,0,0,1.17.83.83,0,0,0,1.17,0L-.1,16.62l1,1L-.51,19.13a.82.82,0,0,0,0,1.17.83.83,0,0,0,1.17,0l1.44-1.54,1,.92a1.25,1.25,0,0,0,1.76-.06L10,14.2l0,0Z"/><path class="cls-34" d="M10,10.5a.46.46,0,0,1,0-.66.48.48,0,0,1,.67,0,.47.47,0,0,1-.65.69Zm1.59-1.74,1.78-.6L13.31,8l-1.79.6a4.73,4.73,0,0,0-1.26-1.92A4.92,4.92,0,0,0,8.37,5.53l.48-1.76-.2,0L8.18,5.47A4.93,4.93,0,0,0,3.34,6.83l7.16,6.73A4.92,4.92,0,0,0,11.59,8.76ZM6.37,7.08a.47.47,0,1,1,.66,0A.46.46,0,0,1,6.37,7.08Z"/></g><g class="cls-35"><path class="cls-36" d="M1.62,6.19a.83.83,0,0,0-1.17,0L-2.3,9.16a.82.82,0,0,0,0,1.17.83.83,0,0,0,1.17,0L1.66,7.37A.84.84,0,0,0,1.62,6.19Z"/><path class="cls-36" d="M11.12,15.12a.85.85,0,0,0-1.18,0L7.19,18.09a.82.82,0,0,0,0,1.16.83.83,0,0,0,1.17,0l2.75-2.93A.84.84,0,0,0,11.12,15.12Z"/><path class="cls-36" d="M2.77,7.27l0,0-5.08,5.4a1.25,1.25,0,0,0,.05,1.76l1,.91-1.44,1.54a.82.82,0,0,0,0,1.17.83.83,0,0,0,1.17,0l1.45-1.54,1,1L-.51,19a.83.83,0,0,0,0,1.17.83.83,0,0,0,1.17,0l1.45-1.54,1,.92a1.25,1.25,0,0,0,1.76-.06L10,14.09l0,0Z"/><path class="cls-36" d="M10,10.39a.46.46,0,0,1,0-.66.47.47,0,0,1,.66,0,.47.47,0,0,1-.64.69ZM11.6,8.65l1.77-.6-.06-.2-1.79.6a4.81,4.81,0,0,0-1.25-1.92A5,5,0,0,0,8.38,5.42l.48-1.76-.2-.05L8.19,5.36A5,5,0,0,0,3.34,6.72l7.16,6.73A4.94,4.94,0,0,0,11.6,8.65ZM6.37,7a.48.48,0,0,1,0-.66.47.47,0,0,1,.67,0A.46.46,0,0,1,7,7,.47.47,0,0,1,6.37,7Z"/></g><g class="cls-37"><path class="cls-38" d="M1.63,6.08a.85.85,0,0,0-1.18,0L-2.3,9.05a.82.82,0,0,0,0,1.17.83.83,0,0,0,1.17,0L1.66,7.26A.83.83,0,0,0,1.63,6.08Z"/><path class="cls-38" d="M11.12,15a.85.85,0,0,0-1.18,0L7.19,18a.82.82,0,0,0,0,1.16.84.84,0,0,0,1.18,0l2.75-2.93A.85.85,0,0,0,11.12,15Z"/><path class="cls-38" d="M2.78,7.17l0,0-5.07,5.4a1.25,1.25,0,0,0,0,1.76l1,.91L-2.75,16.8a.83.83,0,0,0,0,1.17.83.83,0,0,0,1.17,0L-.09,16.4l1,1L-.51,18.91a.82.82,0,0,0,0,1.17.83.83,0,0,0,1.17,0l1.44-1.54,1,.92a1.25,1.25,0,0,0,1.76-.06L10,14l0,0Z"/><path class="cls-38" d="M10,10.28a.46.46,0,0,1,0-.66.46.46,0,1,1,0,.66ZM11.6,8.54l1.78-.6-.06-.2-1.79.6a4.73,4.73,0,0,0-1.26-1.91A4.89,4.89,0,0,0,8.38,5.31l.48-1.76-.2,0L8.19,5.26A4.91,4.91,0,0,0,3.35,6.61l7.15,6.73A4.91,4.91,0,0,0,11.6,8.54ZM6.38,6.86a.47.47,0,1,1,.66,0A.46.46,0,0,1,6.38,6.86Z"/></g><g class="cls-39"><path class="cls-40" d="M1.63,6A.83.83,0,0,0,.46,6L-2.29,8.94a.82.82,0,0,0,0,1.17.82.82,0,0,0,1.16,0L1.66,7.15A.83.83,0,0,0,1.63,6Z"/><path class="cls-40" d="M11.12,14.9a.83.83,0,0,0-1.17,0L7.2,17.87A.83.83,0,0,0,8.41,19l2.75-2.93A.83.83,0,0,0,11.12,14.9Z"/><path class="cls-40" d="M2.78,7.06l0,0-5.08,5.4a1.25,1.25,0,0,0,0,1.76l1,.91-1.44,1.54a.82.82,0,0,0,0,1.17.83.83,0,0,0,1.17,0l1.44-1.54,1,1L-.5,18.8A.82.82,0,0,0-.46,20a.83.83,0,0,0,1.17,0L2.16,18.4l1,.92a1.25,1.25,0,0,0,1.76-.06L10,13.87l0,0Z"/><path class="cls-40" d="M10,10.17a.47.47,0,1,1,.66,0A.47.47,0,0,1,10,10.17ZM11.6,8.43l1.78-.6-.06-.2-1.79.6a4.71,4.71,0,0,0-1.25-1.91A4.89,4.89,0,0,0,8.39,5.2l.48-1.76-.21,0L8.19,5.15A4.92,4.92,0,0,0,3.35,6.5l7.16,6.73A4.91,4.91,0,0,0,11.6,8.43ZM6.38,6.75a.47.47,0,1,1,.67,0A.47.47,0,0,1,6.38,6.75Z"/></g><g class="cls-41"><path class="cls-42" d="M1.64,5.86a.85.85,0,0,0-1.18,0L-2.29,8.83a.82.82,0,0,0,0,1.17.83.83,0,0,0,1.17,0L1.67,7A.85.85,0,0,0,1.64,5.86Z"/><path class="cls-42" d="M11.13,14.79a.85.85,0,0,0-1.18,0L7.2,17.76A.83.83,0,0,0,8.41,18.9L11.16,16A.84.84,0,0,0,11.13,14.79Z"/><path class="cls-42" d="M2.79,7l0,0-5.07,5.4a1.23,1.23,0,0,0,.05,1.76l1,.91-1.45,1.54a.83.83,0,0,0,0,1.17.83.83,0,0,0,1.17,0l1.45-1.54,1,1L-.5,18.69a.82.82,0,0,0,0,1.17.81.81,0,0,0,1.16,0l1.45-1.54,1,.92a1.25,1.25,0,0,0,1.76-.06L10,13.76l0,0Z"/><path class="cls-42" d="M10,10.06a.47.47,0,1,1,.64-.68.47.47,0,0,1-.64.68Zm1.59-1.74,1.78-.6-.07-.2-1.78.6a4.83,4.83,0,0,0-1.26-1.91A4.89,4.89,0,0,0,8.39,5.09l.48-1.76-.2-.05L8.2,5A4.91,4.91,0,0,0,3.36,6.39l7.15,6.73A4.91,4.91,0,0,0,11.61,8.32ZM6.39,6.64a.47.47,0,1,1,.66,0A.46.46,0,0,1,6.39,6.64Z"/></g><g class="cls-43"><path class="cls-44" d="M1.64,5.75a.82.82,0,0,0-1.17,0L-2.28,8.72a.83.83,0,0,0,0,1.17.83.83,0,0,0,1.17,0L1.67,6.93A.83.83,0,0,0,1.64,5.75Z"/><path class="cls-44" d="M11.13,14.68a.83.83,0,0,0-1.17,0L7.21,17.65a.83.83,0,0,0,0,1.17.85.85,0,0,0,1.18,0l2.75-2.93A.84.84,0,0,0,11.13,14.68Z"/><path class="cls-44" d="M2.79,6.84l0,0-5.08,5.4A1.25,1.25,0,0,0-2.26,14l1,.91-1.44,1.54a.82.82,0,0,0,0,1.17.82.82,0,0,0,1.17,0l1.44-1.54,1,1L-.49,18.58a.82.82,0,0,0,0,1.17.82.82,0,0,0,1.17,0l1.45-1.54,1,.92A1.25,1.25,0,0,0,4.9,19L10,13.65l0,0Z"/><path class="cls-44" d="M10,10a.47.47,0,0,1,0-.66A.46.46,0,1,1,10,10Zm1.59-1.74,1.78-.6-.06-.2L11.54,8A4.71,4.71,0,0,0,10.29,6.1,4.89,4.89,0,0,0,8.4,5l.48-1.76-.21-.05L8.2,4.93A4.92,4.92,0,0,0,3.36,6.28L10.52,13A4.91,4.91,0,0,0,11.61,8.21ZM6.39,6.53A.47.47,0,1,1,7,5.85a.47.47,0,1,1-.64.68Z"/></g><g class="cls-45"><path class="cls-46" d="M1.65,5.65a.83.83,0,0,0-1.18,0L-2.28,8.61a.82.82,0,0,0,0,1.17.83.83,0,0,0,1.17,0L1.68,6.82A.83.83,0,0,0,1.65,5.65Z"/><path class="cls-46" d="M11.14,14.57a.85.85,0,0,0-1.18,0L7.21,17.54a.83.83,0,0,0,1.21,1.14l2.75-2.93A.84.84,0,0,0,11.14,14.57Z"/><path class="cls-46" d="M2.79,6.73l0,0-5.08,5.4a1.24,1.24,0,0,0,.06,1.76l1,.91-1.45,1.54a.82.82,0,0,0,0,1.17.82.82,0,0,0,1.17,0L-.07,16l1,1L-.49,18.47a.82.82,0,0,0,0,1.17.81.81,0,0,0,1.16,0l1.45-1.54,1,.92a1.26,1.26,0,0,0,1.77-.06L10,13.54l0,0Z"/><path class="cls-46" d="M10,9.84a.47.47,0,0,1,.64-.68.47.47,0,0,1-.64.68ZM11.62,8.1l1.77-.6-.06-.2-1.78.6a5,5,0,0,0-3.15-3l.48-1.76-.2,0L8.21,4.82A4.93,4.93,0,0,0,3.36,6.17l7.16,6.73A4.91,4.91,0,0,0,11.62,8.1ZM6.39,6.42a.47.47,0,0,1,0-.66.47.47,0,0,1,.68.64A.47.47,0,0,1,6.39,6.42Z"/></g><g class="cls-47"><path class="cls-48" d="M1.65,5.54a.82.82,0,0,0-1.17,0L-2.27,8.5a.83.83,0,0,0,0,1.17.83.83,0,0,0,1.17,0L1.68,6.71A.82.82,0,0,0,1.65,5.54Z"/><path class="cls-48" d="M11.14,14.46a.83.83,0,0,0-1.17,0L7.22,17.43a.83.83,0,0,0,0,1.17.85.85,0,0,0,1.18,0l2.75-2.93A.85.85,0,0,0,11.14,14.46Z"/><path class="cls-48" d="M2.8,6.62l0,0L-2.3,12a1.25,1.25,0,0,0,0,1.76l1,.91-1.45,1.54a.82.82,0,0,0,0,1.17.82.82,0,0,0,1.17,0l1.44-1.54,1,1L-.48,18.36a.82.82,0,0,0,0,1.17.82.82,0,0,0,1.17,0L2.17,18l1,.92a1.25,1.25,0,0,0,1.76-.06L10,13.43l0,0Z"/><path class="cls-48" d="M10,9.73a.47.47,0,0,1,.64-.68.45.45,0,0,1,0,.65A.46.46,0,0,1,10,9.73ZM11.62,8l1.78-.6-.06-.2-1.79.6a4.76,4.76,0,0,0-1.26-1.91A4.82,4.82,0,0,0,8.4,4.76L8.88,3l-.2,0L8.21,4.71A4.92,4.92,0,0,0,3.37,6.06l7.16,6.74A4.93,4.93,0,0,0,11.62,8ZM6.4,6.31a.47.47,0,1,1,.66,0A.46.46,0,0,1,6.4,6.31Z"/></g><g class="cls-49"><path class="cls-50" d="M1.65,5.43a.82.82,0,0,0-1.17,0L-2.27,8.39a.82.82,0,0,0,0,1.17.83.83,0,0,0,1.17,0L1.69,6.6A.82.82,0,0,0,1.65,5.43Z"/><path class="cls-50" d="M11.14,14.35a.83.83,0,0,0-1.17,0L7.22,17.32a.83.83,0,0,0,1.21,1.14l2.75-2.93A.83.83,0,0,0,11.14,14.35Z"/><path class="cls-50" d="M2.8,6.51l0,0-5.08,5.4a1.25,1.25,0,0,0,0,1.76l1,.91-1.44,1.54a.82.82,0,0,0,0,1.17.82.82,0,0,0,1.17,0l1.45-1.54,1,1L-.48,18.25a.82.82,0,0,0,0,1.17.82.82,0,0,0,1.17,0l1.45-1.54,1,.92a1.25,1.25,0,0,0,1.76-.06L10,13.32s0,0,0,0Z"/><path class="cls-50" d="M10,9.62a.47.47,0,0,1,.64-.68.47.47,0,0,1-.64.68Zm1.59-1.74,1.77-.6-.06-.2-1.79.6A4.84,4.84,0,0,0,10.3,5.77,4.89,4.89,0,0,0,8.41,4.65l.48-1.76-.21-.05L8.22,4.6A4.93,4.93,0,0,0,3.37,6l7.16,6.74A5,5,0,0,0,11.63,7.88ZM6.4,6.2a.47.47,0,1,1,.65-.68.46.46,0,0,1,0,.66A.47.47,0,0,1,6.4,6.2Z"/></g><g class="cls-51"><path class="cls-52" d="M1.66,5.32a.83.83,0,0,0-1.18,0L-2.27,8.28a.82.82,0,0,0,0,1.17.82.82,0,0,0,1.17,0L1.69,6.49A.82.82,0,0,0,1.66,5.32Z"/><path class="cls-52" d="M11.15,14.24a.84.84,0,0,0-1.18,0L7.22,17.21a.83.83,0,0,0,0,1.17.85.85,0,0,0,1.18,0l2.75-2.93A.85.85,0,0,0,11.15,14.24Z"/><path class="cls-52" d="M2.81,6.4l0,0-5.07,5.4a1.23,1.23,0,0,0,0,1.76l1,.91L-2.72,16a.83.83,0,0,0,0,1.17.82.82,0,0,0,1.17,0l1.45-1.54,1,1L-.48,18.14a.82.82,0,0,0,0,1.17.82.82,0,0,0,1.17,0l1.44-1.54,1,.92a1.25,1.25,0,0,0,1.76-.06L10,13.21l0,0Z"/><path class="cls-52" d="M10,9.51a.47.47,0,1,1,.66,0A.46.46,0,0,1,10,9.51Zm1.59-1.74,1.78-.6L13.35,7l-1.79.6a5,5,0,0,0-3.15-3l.48-1.76-.2,0L8.22,4.49A4.91,4.91,0,0,0,3.38,5.84l7.15,6.74A4.94,4.94,0,0,0,11.63,7.77ZM6.41,6.09a.47.47,0,1,1,.66,0A.46.46,0,0,1,6.41,6.09Z"/></g><g class="cls-53"><path class="cls-54" d="M1.66,5.21a.82.82,0,0,0-1.17,0L-2.26,8.17a.82.82,0,0,0,0,1.17.81.81,0,0,0,1.16,0L1.69,6.38A.82.82,0,0,0,1.66,5.21Z"/><path class="cls-54" d="M11.15,14.13a.82.82,0,0,0-1.17,0L7.23,17.1a.82.82,0,0,0,0,1.17.83.83,0,0,0,1.17,0l2.75-2.92A.85.85,0,0,0,11.15,14.13Z"/><path class="cls-54" d="M2.81,6.29l0,0-5.08,5.4a1.25,1.25,0,0,0,0,1.76l1,.91-1.44,1.54a.82.82,0,0,0,0,1.17.82.82,0,0,0,1.17,0l1.44-1.54,1,1L-.47,18a.82.82,0,0,0,0,1.17.82.82,0,0,0,1.17,0l1.45-1.54,1,.92a1.25,1.25,0,0,0,1.76-.06L10,13.1l0,0Z"/><path class="cls-54" d="M10,9.4a.47.47,0,0,1,0-.66.46.46,0,1,1,0,.66Zm1.59-1.74,1.78-.6-.06-.2-1.79.61a4.81,4.81,0,0,0-1.25-1.92A4.89,4.89,0,0,0,8.42,4.43L8.9,2.67l-.21,0L8.22,4.38A4.92,4.92,0,0,0,3.38,5.73l7.16,6.74A4.93,4.93,0,0,0,11.63,7.66ZM6.41,6a.46.46,0,0,1,0-.66.47.47,0,0,1,.67,0,.48.48,0,0,1,0,.66A.47.47,0,0,1,6.41,6Z"/></g><g class="cls-55"><path class="cls-56" d="M1.67,5.1a.83.83,0,0,0-1.18,0L-2.26,8.06a.82.82,0,0,0,0,1.17A.82.82,0,0,0-1,9.19L1.7,6.27A.83.83,0,0,0,1.67,5.1Z"/><path class="cls-56" d="M11.16,14a.83.83,0,0,0-1.18,0L7.23,17a.83.83,0,0,0,1.21,1.14l2.75-2.92A.84.84,0,0,0,11.16,14Z"/><path class="cls-56" d="M2.82,6.18l0,0L-2.28,11.6a1.23,1.23,0,0,0,0,1.76l1,.91-1.45,1.54a.82.82,0,0,0,0,1.17A.82.82,0,0,0-1.5,17L0,15.41l1,1L-.47,17.92a.82.82,0,0,0,0,1.17.8.8,0,0,0,1.16,0l1.45-1.54,1,.92a1.25,1.25,0,0,0,1.77-.06L10,13l0,0Z"/><path class="cls-56" d="M10.05,9.29a.47.47,0,1,1,.64-.68.47.47,0,0,1-.64.68Zm1.59-1.74L13.41,7l-.06-.2-1.78.61a5,5,0,0,0-3.15-3L8.9,2.56l-.2,0L8.23,4.27A4.93,4.93,0,0,0,3.38,5.62l7.16,6.74A4.94,4.94,0,0,0,11.64,7.55ZM6.42,5.87a.47.47,0,1,1,.66,0A.45.45,0,0,1,6.42,5.87Z"/></g><g class="cls-57"><path class="cls-58" d="M1.67,5A.82.82,0,0,0,.5,5L-2.25,8a.83.83,0,0,0,0,1.17A.82.82,0,0,0-1,9.08L1.7,6.16A.82.82,0,0,0,1.67,5Z"/><path class="cls-58" d="M11.16,13.92A.82.82,0,0,0,10,14L7.24,16.88a.83.83,0,0,0,0,1.17.85.85,0,0,0,1.18,0L11.2,15.1A.85.85,0,0,0,11.16,13.92Z"/><path class="cls-58" d="M2.82,6.07l0,0-5.07,5.39a1.25,1.25,0,0,0,0,1.76l1,.91L-2.71,15.7a.82.82,0,0,0,0,1.17.82.82,0,0,0,1.17,0L0,15.3l1,1L-.46,17.81A.82.82,0,0,0-.42,19,.82.82,0,0,0,.75,19l1.44-1.54,1,.92a1.24,1.24,0,0,0,1.76-.06L10,12.88s0,0,0,0Z"/><path class="cls-58" d="M10.05,9.18a.47.47,0,1,1,.66,0A.46.46,0,0,1,10.05,9.18Zm1.59-1.74,1.78-.6-.06-.2-1.79.61a4.73,4.73,0,0,0-1.26-1.92A4.75,4.75,0,0,0,8.42,4.21l.49-1.76-.21,0L8.23,4.16A4.92,4.92,0,0,0,3.39,5.51l7.16,6.74A4.93,4.93,0,0,0,11.64,7.44ZM6.42,5.76a.47.47,0,1,1,.66,0A.45.45,0,0,1,6.42,5.76Z"/></g><g class="cls-59"><path class="cls-60" d="M1.67,4.88a.82.82,0,0,0-1.17,0L-2.25,7.84A.82.82,0,0,0-2.21,9,.82.82,0,0,0-1,9L1.71,6.05A.82.82,0,0,0,1.67,4.88Z"/><path class="cls-60" d="M11.17,13.81a.83.83,0,0,0-1.18,0L7.24,16.77a.83.83,0,0,0,1.21,1.14L11.2,15A.84.84,0,0,0,11.17,13.81Z"/><path class="cls-60" d="M2.82,6l0,0-5.08,5.39a1.25,1.25,0,0,0,0,1.76l1,.91L-2.7,15.59a.82.82,0,0,0,0,1.17.82.82,0,0,0,1.17,0L0,15.19l1,1L-.46,17.7a.83.83,0,0,0,0,1.17.82.82,0,0,0,1.17,0L2.2,17.3l1,.92a1.25,1.25,0,0,0,1.77-.06L10,12.77l0,0Z"/><path class="cls-60" d="M10.06,9.07a.47.47,0,1,1,.64-.68.47.47,0,0,1-.64.68Zm1.59-1.74,1.77-.6-.06-.2-1.78.61a5,5,0,0,0-3.15-3l.48-1.76-.2,0L8.24,4.05A4.93,4.93,0,0,0,3.39,5.4l7.16,6.74A4.94,4.94,0,0,0,11.65,7.33ZM6.42,5.65a.47.47,0,0,1,0-.66.47.47,0,1,1,0,.66Z"/></g><g class="cls-61"><path class="cls-62" d="M1.68,4.77a.83.83,0,0,0-1.18,0L-2.24,7.73a.83.83,0,0,0,0,1.17A.82.82,0,0,0-1,8.86L1.71,5.94A.82.82,0,0,0,1.68,4.77Z"/><path class="cls-62" d="M11.17,13.7a.82.82,0,0,0-1.17,0L7.25,16.66a.83.83,0,0,0,0,1.17.85.85,0,0,0,1.18,0l2.75-2.92A.85.85,0,0,0,11.17,13.7Z"/><path class="cls-62" d="M2.83,5.85l0,0-5.07,5.39a1.25,1.25,0,0,0,0,1.76l1,.92L-2.7,15.48a.83.83,0,0,0,0,1.17.82.82,0,0,0,1.17,0L0,15.08l1,1L-.45,17.59a.84.84,0,0,0,0,1.18.82.82,0,0,0,1.17,0L2.2,17.19l1,.92a1.24,1.24,0,0,0,1.76-.06L10,12.66l0,0Z"/><path class="cls-62" d="M10.06,9a.47.47,0,1,1,.66,0A.45.45,0,0,1,10.06,9Zm1.59-1.74,1.78-.6-.06-.2L11.58,7a4.73,4.73,0,0,0-1.26-1.92A4.82,4.82,0,0,0,8.43,4l.48-1.76-.2,0L8.24,3.94A4.92,4.92,0,0,0,3.4,5.29L10.55,12A4.94,4.94,0,0,0,11.65,7.22ZM6.43,5.54a.46.46,0,0,1,0-.66.47.47,0,0,1,.66,0,.46.46,0,0,1,0,.66A.45.45,0,0,1,6.43,5.54Z"/></g><g class="cls-63"><path class="cls-64" d="M1.68,4.66a.82.82,0,0,0-1.17,0L-2.24,7.62a.82.82,0,0,0,0,1.17A.82.82,0,0,0-1,8.75L1.71,5.83A.82.82,0,0,0,1.68,4.66Z"/><path class="cls-64" d="M11.17,13.59a.82.82,0,0,0-1.17,0L7.25,16.55a.83.83,0,0,0,1.21,1.14l2.75-2.92A.83.83,0,0,0,11.17,13.59Z"/><path class="cls-64" d="M2.83,5.74l0,0-5.08,5.39a1.25,1.25,0,0,0,0,1.76l1,.92-1.44,1.53a.82.82,0,0,0,0,1.17.82.82,0,0,0,1.17,0L0,15l1,1L-.45,17.48a.84.84,0,0,0,0,1.18.82.82,0,0,0,1.17,0l1.45-1.54,1,.92a1.24,1.24,0,0,0,1.76-.06L10,12.55s0,0,0,0Z"/><path class="cls-64" d="M10.06,8.85a.47.47,0,0,1,0-.66.46.46,0,1,1,.67.63A.45.45,0,0,1,10.06,8.85Zm1.59-1.74,1.78-.6-.06-.2-1.79.61A4.81,4.81,0,0,0,10.33,5,4.89,4.89,0,0,0,8.44,3.88l.48-1.76-.21,0L8.25,3.83A4.93,4.93,0,0,0,3.4,5.18l7.16,6.74A4.93,4.93,0,0,0,11.65,7.11ZM6.43,5.44a.47.47,0,1,1,.65-.69.47.47,0,0,1-.65.69Z"/></g><path class="cls-65" d="M1.69,4.55a.83.83,0,0,0-1.18,0L-2.24,7.51a.82.82,0,0,0,0,1.17A.82.82,0,0,0-1,8.65L1.72,5.72A.83.83,0,0,0,1.69,4.55Z"/><path class="cls-65" d="M11.18,13.48a.84.84,0,0,0-1.18,0L7.25,16.44a.83.83,0,0,0,0,1.17.85.85,0,0,0,1.18,0l2.75-2.92A.85.85,0,0,0,11.18,13.48Z"/><path class="cls-65" d="M2.84,5.63l0,0-5.07,5.39a1.23,1.23,0,0,0,0,1.76l1,.92-1.45,1.53a.83.83,0,0,0,0,1.17.82.82,0,0,0,1.17,0L0,14.87l1,1L-.45,17.37a.84.84,0,0,0,0,1.18.82.82,0,0,0,1.17,0L2.21,17l1,.91A1.24,1.24,0,0,0,5,17.83L10,12.44l0,0Z"/><path class="cls-65" d="M10.07,8.74a.47.47,0,1,1,.66,0A.45.45,0,0,1,10.07,8.74ZM11.66,7l1.78-.6-.06-.2-1.79.61a4.83,4.83,0,0,0-1.26-1.92A4.89,4.89,0,0,0,8.44,3.77L8.92,2,8.72,2,8.25,3.72A4.91,4.91,0,0,0,3.41,5.07l7.15,6.74A4.94,4.94,0,0,0,11.66,7ZM6.44,5.33a.47.47,0,1,1,.66,0A.47.47,0,0,1,6.44,5.33Z"/></g><path class="cls-66" d="M1.69,4.55a.83.83,0,0,0-1.18,0L-2.24,7.51a.82.82,0,0,0,0,1.17A.82.82,0,0,0-1,8.65L1.72,5.72A.83.83,0,0,0,1.69,4.55Z"/><path class="cls-66" d="M11.18,13.48a.84.84,0,0,0-1.18,0L7.25,16.44a.83.83,0,0,0,0,1.17.85.85,0,0,0,1.18,0l2.75-2.92A.85.85,0,0,0,11.18,13.48Z"/><path class="cls-66" d="M2.84,5.63l0,0-5.07,5.39a1.23,1.23,0,0,0,0,1.76l1,.92-1.45,1.53a.83.83,0,0,0,0,1.17.82.82,0,0,0,1.17,0L0,14.87l1,1L-.45,17.37a.84.84,0,0,0,0,1.18.82.82,0,0,0,1.17,0L2.21,17l1,.91A1.24,1.24,0,0,0,5,17.83L10,12.44l0,0Z"/><path class="cls-66" d="M11.66,7l1.78-.6-.06-.2-1.79.61a4.83,4.83,0,0,0-1.26-1.92A4.89,4.89,0,0,0,8.44,3.77L8.92,2,8.72,2,8.25,3.72A4.91,4.91,0,0,0,3.41,5.07l7.15,6.74A4.94,4.94,0,0,0,11.66,7ZM6.44,5.33a.47.47,0,1,1,.66,0A.47.47,0,0,1,6.44,5.33Zm3.63,3.41a.47.47,0,1,1,.66,0A.45.45,0,0,1,10.07,8.74Z"/></g></g></svg>