<svg id="Layer_1" data-name="Layer 1" xmlns="http://www.w3.org/2000/svg" xmlns:xlink="http://www.w3.org/1999/xlink" viewBox="0 0 50 100"><defs><style>.cls-1,.cls-2,.cls-3,.cls-4,.cls-5{fill:none;stroke-miterlimit:10;}.cls-1{stroke-width:0.5px;stroke:url(#radial-gradient);}.cls-2,.cls-3,.cls-4,.cls-5{stroke-width:0.25px;}.cls-2{stroke:url(#radial-gradient-2);}.cls-3{stroke:url(#radial-gradient-3);}.cls-4{stroke:url(#radial-gradient-4);}.cls-5{stroke:url(#radial-gradient-5);}</style><radialGradient id="radial-gradient" cx="39.17" cy="40.6" r="9.92" gradientUnits="userSpaceOnUse"><stop offset="0" stop-color="#58ff3f"/><stop offset="0.11" stop-color="#53f43b"/><stop offset="0.29" stop-color="#47d832"/><stop offset="0.54" stop-color="#32a923"/><stop offset="0.82" stop-color="#17690e"/><stop offset="1" stop-color="#043f00"/></radialGradient><radialGradient id="radial-gradient-2" cx="-2.24" cy="8.88" r="3.02" xlink:href="#radial-gradient"/><radialGradient id="radial-gradient-3" cx="11.46" cy="18.66" r="3.02" xlink:href="#radial-gradient"/><radialGradient id="radial-gradient-4" cx="3.81" cy="15.71" r="8.54" xlink:href="#radial-gradient"/><radialGradient id="radial-gradient-5" cx="8.71" cy="7.53" r="6.5" xlink:href="#radial-gradient"/></defs><path class="cls-1" d="M42.93,48.87h0V45.21a4,4,0,0,0-.23-1.42,2.25,2.25,0,0,0-.61-.91l1.21-.22a6.45,6.45,0,0,0,1.7-.58,4.42,4.42,0,0,0,2.24-2.38,7,7,0,0,0,.29-4.64,4.19,4.19,0,0,0-.87-1.59.29.29,0,0,1-.06-.33,4.46,4.46,0,0,0-.18-3c-.05-.12-.13-.13-.23-.13a3.45,3.45,0,0,0-1.31.27,9.69,9.69,0,0,0-1.76.89.43.43,0,0,1-.38.07,11.48,11.48,0,0,0-5.18-.12,2,2,0,0,1-1.64-.26A5.23,5.23,0,0,0,33.78,30l-.3,0-.24.08a1.35,1.35,0,0,0-.17.39,4.86,4.86,0,0,0,0,2.75.29.29,0,0,1-.07.32,4.71,4.71,0,0,0-1.12,3.1,8.14,8.14,0,0,0,.36,2.73,4.91,4.91,0,0,0,3.6,3.26,11.4,11.4,0,0,0,1.72.32,2.5,2.5,0,0,0-.42.53,2.27,2.27,0,0,0-.31.94.28.28,0,0,1-.19.25,2.69,2.69,0,0,1-3.54-1.13,2.49,2.49,0,0,0-1.66-1.18,1.18,1.18,0,0,0-.67,0c-.2.07-.23.19-.11.36a1.3,1.3,0,0,0,.33.29,3.81,3.81,0,0,1,1.49,1.85,2.84,2.84,0,0,0,2.6,1.8,5.63,5.63,0,0,0,1.63-.14c0,.75,0,1.59,0,2.33,0,0,0,2.34,3.12,2.34S42.93,48.87,42.93,48.87Z"/><path class="cls-2" d="M-.11,5.9a1.07,1.07,0,0,0-1.5.25l-3,4.22a1.07,1.07,0,0,0,.25,1.49,1.06,1.06,0,0,0,1.49-.25l3-4.21A1.06,1.06,0,0,0-.11,5.9Z"/><path class="cls-3" d="M13.59,15.68a1.08,1.08,0,0,0-1.5.26l-3,4.21a1.08,1.08,0,0,0,1.75,1.25l3-4.21A1.08,1.08,0,0,0,13.59,15.68Z"/><path class="cls-4" d="M1.55,7.08l0,0L-4,14.91a1.6,1.6,0,0,0,.37,2.24l1.4,1-1.58,2.22a1.08,1.08,0,0,0,.26,1.5,1.06,1.06,0,0,0,1.49-.25L-.52,19.4,1,20.47-.61,22.68a1.07,1.07,0,0,0,.25,1.5,1.06,1.06,0,0,0,1.49-.25l1.59-2.22,1.4,1a1.62,1.62,0,0,0,2.25-.38l5.56-7.79s0,0,0,0Z"/><path class="cls-5" d="M13.08,7.31l2.17-1.07L15.14,6,13,7.07A6.29,6.29,0,0,0,11,4.83,6.62,6.62,0,0,0,8.4,3.73L8.71,1.4l-.27,0L8.15,3.7a6.36,6.36,0,0,0-6,2.57l10.33,7.38A6.36,6.36,0,0,0,13.08,7.31Zm-7-1.24A.61.61,0,1,1,7,5.93.61.61,0,0,1,6.11,6.07Zm5.24,3.74a.6.6,0,1,1,.7-1,.6.6,0,0,1-.7,1Z"/></svg>