<svg xmlns="http://www.w3.org/2000/svg" xmlns:xlink="http://www.w3.org/1999/xlink" viewBox="0 0 50 100"><defs><style>.cls-1{isolation:isolate;}.cls-12,.cls-13,.cls-2,.cls-4,.cls-6,.cls-7{fill:none;stroke-miterlimit:10;stroke-width:0.25px;}.cls-2{stroke:url(#linear-gradient);}.cls-3{fill:#ffe00a;}.cls-4{stroke:url(#linear-gradient-2);}.cls-5{fill:#fbbb1a;}.cls-6{stroke:url(#radial-gradient);}.cls-7{stroke:url(#radial-gradient-2);}.cls-8{fill:url(#radial-gradient-3);}.cls-9{fill:#9a4132;mix-blend-mode:multiply;opacity:0.2;}.cls-10{fill:url(#linear-gradient-3);}.cls-11{fill:url(#linear-gradient-4);}.cls-12{stroke:url(#linear-gradient-5);}.cls-13{stroke:url(#linear-gradient-6);}</style><linearGradient id="linear-gradient" x1="28.53" y1="43.07" x2="45.28" y2="43.07" gradientUnits="userSpaceOnUse"><stop offset="0" stop-color="#931634"/><stop offset="1" stop-color="#e63b11"/></linearGradient><linearGradient id="linear-gradient-2" x1="28.53" y1="43.42" x2="45.23" y2="43.42" xlink:href="#linear-gradient"/><radialGradient id="radial-gradient" cx="26.95" cy="32.49" r="3.16" gradientUnits="userSpaceOnUse"><stop offset="0" stop-color="#bf2918"/><stop offset="0.25" stop-color="#bc2918"/><stop offset="0.42" stop-color="#b32717"/><stop offset="0.57" stop-color="#a42516"/><stop offset="0.7" stop-color="#8e2114"/><stop offset="0.82" stop-color="#721d12"/><stop offset="0.94" stop-color="#51170f"/><stop offset="1" stop-color="#3b140d"/></radialGradient><radialGradient id="radial-gradient-2" cx="27.08" cy="32.36" r="3.28" xlink:href="#radial-gradient"/><radialGradient id="radial-gradient-3" cx="25.69" cy="32.28" r="2.14" xlink:href="#radial-gradient"/><linearGradient id="linear-gradient-3" x1="20.26" y1="44.47" x2="27.03" y2="44.47" xlink:href="#radial-gradient"/><linearGradient id="linear-gradient-4" x1="20.36" y1="43.67" x2="27.03" y2="43.67" xlink:href="#radial-gradient"/><linearGradient id="linear-gradient-5" x1="26.69" y1="48.83" x2="50" y2="48.83" xlink:href="#linear-gradient"/><linearGradient id="linear-gradient-6" x1="26.3" y1="49.52" x2="49.86" y2="49.52" xlink:href="#linear-gradient"/></defs><g class="cls-1"><g id="Layer_1" data-name="Layer 1"><path class="cls-2" d="M44.54,51.23a.37.37,0,0,0,.51,0h0a.36.36,0,0,0,0-.5l-15-15.84-.69.69-.7.69Z"/><rect class="cls-3" x="27.63" y="34.92" width="2.99" height="0.77" rx="0.38" transform="translate(74.69 39.66) rotate(135)"/><path class="cls-4" d="M28.7,36.26l15.84,15a.37.37,0,0,0,.51,0L29.4,35.57Z"/><path class="cls-5" d="M28.07,36.36a.38.38,0,0,0,.54,0l.09-.1.7-.69L28.86,35l-.79.79A.38.38,0,0,0,28.07,36.36Z"/><path class="cls-6" d="M29.65,34.24A2.77,2.77,0,0,0,27.21,32c-2.28-.47-2.68-1.79-2.51-2.38a3.14,3.14,0,0,0,.21,3.59c1.58,2.51,3.16,2.62,3.16,2.62Z"/><path class="cls-7" d="M24.91,33.2c1.58,2.51,3.16,2.62,3.16,2.62l1.58-1.58c-2.27.45-4.46-.7-4.95-2.09a3.78,3.78,0,0,1,0-2.54A3.14,3.14,0,0,0,24.91,33.2Z"/><path class="cls-8" d="M24.91,33.2A7.93,7.93,0,0,0,26.38,35c-.69-1-1.53-2.49-1.1-2.19s.92.25.64.08-1.18-1.05-.44-.6,1.73.54.93.12-1.67-1.19-1-.8a4.25,4.25,0,0,0,1.74.41h0c-2.21-.48-2.59-1.78-2.43-2.36A3.14,3.14,0,0,0,24.91,33.2Z"/><path class="cls-9" d="M25.07,33.45a1.27,1.27,0,0,1,.13.19l0,0,.12.16,0,0,.12.16,0,0,.11.14,0,0,.13.14,0,0,.11.12,0,0,.12.12,0,0,.12.12h0l.12.1,0,0,0,0a12.47,12.47,0,0,1-1.16-2,2.56,2.56,0,0,1-.52-.83,3.78,3.78,0,0,1,0-2.54,3.14,3.14,0,0,0,.21,3.59l.13.2Z"/><path class="cls-10" d="M23.35,44.07a.44.44,0,0,1-.28-.41l-2.81-1.08,4.62,3.79L27,45,23.9,43.82A.41.41,0,0,1,23.35,44.07Z"/><path class="cls-11" d="M23.66,43.27a.45.45,0,0,0-.49.12l-2.81-1.07,6,.26L27,45,23.9,43.82A.42.42,0,0,0,23.66,43.27Z"/><polygon class="cls-12" points="26.85 44.96 49.7 53.73 49.84 53.37 27.24 43.94 26.85 44.96"/><polygon class="cls-13" points="26.85 44.96 49.7 53.73 49.56 54.09 26.46 45.97 26.85 44.96"/></g></g></svg>