<svg xmlns="http://www.w3.org/2000/svg" xmlns:xlink="http://www.w3.org/1999/xlink" viewBox="0 0 50 100"><defs><style>.cls-1{fill:#ffc727;}.cls-10,.cls-2,.cls-3,.cls-4,.cls-5,.cls-6,.cls-7,.cls-8,.cls-9{fill:#f9d815;}.cls-10,.cls-12,.cls-14,.cls-15,.cls-16,.cls-17,.cls-2,.cls-3,.cls-4,.cls-5,.cls-6,.cls-7,.cls-8,.cls-9{stroke-miterlimit:10;}.cls-10,.cls-15,.cls-16,.cls-17,.cls-2,.cls-3,.cls-4,.cls-5,.cls-6,.cls-7,.cls-8,.cls-9{stroke-width:0.15px;}.cls-2{stroke:url(#linear-gradient);}.cls-3{stroke:url(#linear-gradient-2);}.cls-4{stroke:url(#linear-gradient-3);}.cls-5{stroke:url(#linear-gradient-4);}.cls-6{stroke:url(#linear-gradient-5);}.cls-7{stroke:url(#linear-gradient-6);}.cls-8{stroke:url(#linear-gradient-7);}.cls-9{stroke:url(#linear-gradient-8);}.cls-10{stroke:url(#linear-gradient-9);}.cls-11{opacity:0.5;}.cls-12,.cls-14,.cls-15,.cls-16,.cls-17{fill:none;}.cls-12,.cls-14{stroke-width:0.25px;}.cls-12{stroke:url(#radial-gradient);}.cls-13{opacity:0.7;}.cls-14{stroke:url(#radial-gradient-2);}.cls-15{stroke:url(#radial-gradient-3);}.cls-16{stroke:url(#radial-gradient-4);}.cls-17{stroke:url(#radial-gradient-5);}.cls-18{fill:#f7f708;}.cls-19{fill:url(#linear-gradient-10);}.cls-20{fill:url(#linear-gradient-11);}.cls-21{fill:url(#linear-gradient-12);}</style><linearGradient id="linear-gradient" x1="37.78" y1="29.82" x2="38.03" y2="29.82" gradientUnits="userSpaceOnUse"><stop offset="0" stop-color="#ffe28f"/><stop offset="0.35" stop-color="#ffe08d"/><stop offset="0.51" stop-color="#fedb86"/><stop offset="0.63" stop-color="#fcd179"/><stop offset="0.73" stop-color="#f9c367"/><stop offset="0.82" stop-color="#f5b14f"/><stop offset="0.9" stop-color="#f19b32"/><stop offset="0.97" stop-color="#ec8211"/><stop offset="1" stop-color="#e97500"/></linearGradient><linearGradient id="linear-gradient-2" x1="32.39" y1="31.13" x2="34.03" y2="31.13" xlink:href="#linear-gradient"/><linearGradient id="linear-gradient-3" x1="28.41" y1="34.62" x2="31.19" y2="34.62" xlink:href="#linear-gradient"/><linearGradient id="linear-gradient-4" x1="27" y1="39.34" x2="30.18" y2="39.34" xlink:href="#linear-gradient"/><linearGradient id="linear-gradient-5" x1="28.54" y1="44.03" x2="31.27" y2="44.03" xlink:href="#linear-gradient"/><linearGradient id="linear-gradient-6" x1="44.82" y1="43.85" x2="47.61" y2="43.85" xlink:href="#linear-gradient"/><linearGradient id="linear-gradient-7" x1="45.84" y1="39.13" x2="49.02" y2="39.13" xlink:href="#linear-gradient"/><linearGradient id="linear-gradient-8" x1="44.75" y1="34.43" x2="47.47" y2="34.43" xlink:href="#linear-gradient"/><linearGradient id="linear-gradient-9" x1="41.86" y1="31.03" x2="43.4" y2="31.03" xlink:href="#linear-gradient"/><radialGradient id="radial-gradient" cx="38.08" cy="40.38" r="7.48" gradientUnits="userSpaceOnUse"><stop offset="0" stop-color="#ffe28f"/><stop offset="0.15" stop-color="#fede8a"/><stop offset="0.32" stop-color="#fcd47c"/><stop offset="0.5" stop-color="#f8c265"/><stop offset="0.69" stop-color="#f3a944"/><stop offset="0.89" stop-color="#ed891a"/><stop offset="1" stop-color="#e97500"/></radialGradient><radialGradient id="radial-gradient-2" cx="38.08" cy="40.7" r="7.02" xlink:href="#linear-gradient"/><radialGradient id="radial-gradient-3" cx="36.23" cy="44.12" r="2.74" xlink:href="#linear-gradient"/><radialGradient id="radial-gradient-4" cx="39.99" cy="44.12" r="2.74" xlink:href="#linear-gradient"/><radialGradient id="radial-gradient-5" cx="38.13" cy="41.34" r="2.11" xlink:href="#linear-gradient"/><linearGradient id="linear-gradient-10" x1="32.54" y1="36.77" x2="36.84" y2="36.77" gradientUnits="userSpaceOnUse"><stop offset="0" stop-color="#ffc727"/><stop offset="0.13" stop-color="#ffc226"/><stop offset="0.28" stop-color="#ffb423"/><stop offset="0.44" stop-color="#ff9d1e"/><stop offset="0.61" stop-color="#ff7c17"/><stop offset="0.79" stop-color="#ff520d"/><stop offset="0.97" stop-color="#ff1f02"/><stop offset="1" stop-color="#ff1500"/></linearGradient><linearGradient id="linear-gradient-11" x1="43.2" y1="39.03" x2="43.81" y2="39.03" gradientUnits="userSpaceOnUse"><stop offset="0" stop-color="#ffc727"/><stop offset="0.3" stop-color="#ffc22c"/><stop offset="0.65" stop-color="#ffb439"/><stop offset="1" stop-color="#ff9f4d"/></linearGradient><linearGradient id="linear-gradient-12" x1="41.49" y1="41.95" x2="43.67" y2="41.95" xlink:href="#linear-gradient-11"/></defs><g id="Light_bulb" data-name="Light bulb"><polygon class="cls-1" points="21.8 35.06 22.66 34.9 22.85 33.99 23.04 34.9 23.9 35.06 23.04 35.27 22.85 36.12 22.65 35.27 21.8 35.06"/><polygon class="cls-1" points="45.37 52.53 46.23 52.37 46.42 51.47 46.61 52.37 47.47 52.53 46.61 52.74 46.42 53.6 46.22 52.74 45.37 52.53"/><polygon class="cls-1" points="26.2 49.43 26.68 49.34 26.79 48.83 26.9 49.34 27.38 49.43 26.9 49.54 26.79 50.02 26.68 49.54 26.2 49.43"/><polygon class="cls-1" points="26.87 32.72 27.35 32.63 27.46 32.12 27.57 32.63 28.05 32.72 27.57 32.83 27.46 33.31 27.35 32.83 26.87 32.72"/><polygon class="cls-1" points="47.77 31.72 48.25 31.63 48.36 31.12 48.46 31.63 48.94 31.72 48.47 31.84 48.36 32.31 48.25 31.84 47.77 31.72"/><polygon class="cls-1" points="36.79 27.83 37.27 27.74 37.38 27.24 37.48 27.74 37.96 27.83 37.48 27.95 37.38 28.43 37.27 27.95 36.79 27.83"/><path class="cls-1" d="M24.85,50.59a.14.14,0,0,0,0-.28A.14.14,0,0,0,24.85,50.59Z"/><path class="cls-1" d="M48.12,51.23a.1.1,0,0,0,0-.2A.1.1,0,0,0,48.12,51.23Z"/><path class="cls-1" d="M25.32,42.51a.1.1,0,0,0,0-.19A.1.1,0,1,0,25.32,42.51Z"/><path class="cls-1" d="M47.47,32.82a.1.1,0,0,0,0-.2A.1.1,0,0,0,47.47,32.82Z"/><path class="cls-1" d="M24.33,36a.1.1,0,0,0,0-.19A.1.1,0,1,0,24.33,36Z"/><path class="cls-1" d="M49.69,42.61a.1.1,0,0,0,0-.2A.1.1,0,0,0,49.69,42.61Z"/><path class="cls-1" d="M40.51,28.53a.1.1,0,0,0,0-.2A.1.1,0,0,0,40.51,28.53Z"/><path class="cls-1" d="M48.1,42.51a.27.27,0,0,0,0-.53A.27.27,0,0,0,48.1,42.51Z"/><path class="cls-1" d="M43.74,32.89a.27.27,0,0,0,0-.54A.27.27,0,0,0,43.74,32.89Z"/><path class="cls-1" d="M27.84,46.31a.27.27,0,0,0,0-.53A.27.27,0,0,0,27.84,46.31Z"/><path class="cls-2" d="M37.92,30.74a8.18,8.18,0,0,1,0-1.85,8.17,8.17,0,0,1,0,1.85Z"/><path class="cls-3" d="M33.69,31.92a8,8,0,0,1-1-1.59,8.62,8.62,0,0,1,1,1.59Z"/><path class="cls-4" d="M30.61,35.06A7.74,7.74,0,0,1,29,34.17a8,8,0,0,1,1.62.89Z"/><path class="cls-5" d="M29.52,39.32a8.27,8.27,0,0,1-1.86,0,8.27,8.27,0,0,1,1.86,0Z"/><path class="cls-6" d="M30.7,43.55a8,8,0,0,1-1.59,1,8,8,0,0,1,1.59-1Z"/><path class="cls-7" d="M45.41,43.4a8.57,8.57,0,0,1,1.62.9,8.27,8.27,0,0,1-1.62-.9Z"/><path class="cls-8" d="M46.5,39.15a7.72,7.72,0,0,1,1.86,0,8.9,8.9,0,0,1-1.86,0Z"/><path class="cls-9" d="M45.32,34.91a8,8,0,0,1,1.59-1,8,8,0,0,1-1.59,1Z"/><path class="cls-10" d="M42.18,31.83a8.57,8.57,0,0,1,.9-1.62,8,8,0,0,1-.9,1.62Z"/><g class="cls-11"><path class="cls-12" d="M45.05,40.12a6.54,6.54,0,0,1-3.95,5.63,19.59,19.59,0,0,0-.61,2.33H35.68a21.83,21.83,0,0,0-.61-2.33,6.54,6.54,0,0,1-3.95-5.63,6.91,6.91,0,0,1,6.94-7.45h0A6.91,6.91,0,0,1,45.05,40.12Z"/></g><g class="cls-13"><path class="cls-14" d="M44.45,40.14a6,6,0,0,1-3.61,5.15,22.4,22.4,0,0,0-.56,2.79h-4.4a22,22,0,0,0-.55-2.79,6,6,0,0,1-3.62-5.15,6.33,6.33,0,0,1,6.35-6.81h0A6.31,6.31,0,0,1,44.45,40.14Z"/></g><line class="cls-15" x1="36.94" y1="47.91" x2="35.53" y2="40.33"/><line class="cls-16" x1="39.28" y1="47.9" x2="40.69" y2="40.33"/><path class="cls-17" d="M35.65,40.62s.28,1.48,1,1.48,1.3-2.21.42-2.21,0,2.9,1.09,2.9,1.76-2.9,1-2.9-.54,2.31.54,2.31c.58,0,1-1.49,1-1.49"/><polygon class="cls-18" points="40.49 49.37 35.5 49.84 35.5 49.61 40.49 49.15 40.49 49.37"/><polygon class="cls-18" points="40.49 50.06 35.5 50.52 35.5 50.29 40.49 49.83 40.49 50.06"/><polygon class="cls-18" points="40.49 50.74 35.5 51.2 35.5 50.98 40.49 50.52 40.49 50.74"/><g class="cls-11"><path class="cls-19" d="M32.64,39.11c.22,0,.5-1.1,1.73-2.42.55-.59,2.61-1.32,2.46-2s-2,0-2.92,1.09C32.42,37.51,32.43,39.08,32.64,39.11Z"/><path class="cls-20" d="M43.51,39.35a.32.32,0,0,0,0-.63A.32.32,0,0,0,43.51,39.35Z"/><path class="cls-21" d="M41.52,44.1c.22.17,1.3-.83,1.79-2,.4-1,.47-2.23.2-2.3s-.45,1.64-.78,2.27C42.32,42.84,41.28,43.92,41.52,44.1Z"/></g></g></svg>